<?xml version="1.0" encoding="UTF-8" standalone="no"?>
<!-- Created with Inkscape (http://www.inkscape.org/) -->

<svg
   xmlns:dc="http://purl.org/dc/elements/1.1/"
   xmlns:cc="http://creativecommons.org/ns#"
   xmlns:rdf="http://www.w3.org/1999/02/22-rdf-syntax-ns#"
   xmlns:svg="http://www.w3.org/2000/svg"
   xmlns="http://www.w3.org/2000/svg"
   xmlns:sodipodi="http://sodipodi.sourceforge.net/DTD/sodipodi-0.dtd"
   xmlns:inkscape="http://www.inkscape.org/namespaces/inkscape"
   width="1052.3622"
   height="744.09448"
   id="svg2"
   version="1.1"
   inkscape:version="0.48.5 r10040"
   sodipodi:docname="logo.svg">
  <defs
     id="defs4" />
  <sodipodi:namedview
     id="base"
     pagecolor="#ffffff"
     bordercolor="#666666"
     borderopacity="1.0"
     inkscape:pageopacity="0.0"
     inkscape:pageshadow="2"
     inkscape:zoom="12.132484"
     inkscape:cx="685.70347"
     inkscape:cy="658.94891"
     inkscape:document-units="px"
     inkscape:current-layer="layer1"
     showgrid="false"
     inkscape:window-width="1301"
     inkscape:window-height="744"
     inkscape:window-x="65"
     inkscape:window-y="24"
     inkscape:window-maximized="1" />
  <metadata
     id="metadata7">
    <rdf:RDF>
      <cc:Work
         rdf:about="">
        <dc:format>image/svg+xml</dc:format>
        <dc:type
           rdf:resource="http://purl.org/dc/dcmitype/StillImage" />
        <dc:title></dc:title>
      </cc:Work>
    </rdf:RDF>
  </metadata>
  <g
     inkscape:label="Layer 1"
     inkscape:groupmode="layer"
     id="layer1"
     transform="translate(0,-308.2677)">
    <rect
       style="fill:#00c274;fill-opacity:1;stroke:#3b3b3b;stroke-width:4.89999914;stroke-linecap:round;stroke-linejoin:round;stroke-miterlimit:4;stroke-opacity:0;stroke-dasharray:none"
       id="rect2985"
       width="237.51201"
       height="229.17825"
       x="46.877369"
       y="336.70099"
       ry="28.126415"
       rx="24.480398" />
    <rect
       rx="19.271814"
       ry="19.271801"
       y="350.85049"
       x="65.858246"
       height="77.642189"
       width="75.964615"
       id="rect3773"
       style="fill:#eeeeec;fill-opacity:1;stroke:#3b3b3b;stroke-width:1.61295056;stroke-linecap:round;stroke-linejoin:round;stroke-miterlimit:4;stroke-opacity:0;stroke-dasharray:none" />
    <rect
       style="fill:#eeeeec;fill-opacity:1;stroke:#3b3b3b;stroke-width:1.96940756;stroke-linecap:round;stroke-linejoin:round;stroke-miterlimit:4;stroke-opacity:0;stroke-dasharray:none"
       id="rect3775"
       width="75.964615"
       height="115.75156"
       x="63.774811"
       y="440.37515"
       ry="23.959517"
       rx="21.355255" />
    <rect
       style="fill:#eeeeec;fill-opacity:1;stroke:#3b3b3b;stroke-width:1.63443744;stroke-linecap:round;stroke-linejoin:round;stroke-miterlimit:4;stroke-opacity:0;stroke-dasharray:none"
       id="rect3777"
       width="75.964615"
       height="79.724586"
       x="190.19705"
       y="473.01425"
       ry="21.876093"
       rx="20.834394" />
    <rect
       rx="19.271811"
       ry="22.396933"
       y="347.20447"
       x="190.71793"
       height="115.75156"
       width="75.964615"
       id="rect3779"
       style="fill:#eeeeec;fill-opacity:1;stroke:#3b3b3b;stroke-width:1.96940756;stroke-linecap:round;stroke-linejoin:round;stroke-miterlimit:4;stroke-opacity:0;stroke-dasharray:none" />
    <path
       style="fill:#00c274;fill-opacity:1;stroke:#3b3b3b;stroke-width:4.89999914;stroke-linecap:round;stroke-linejoin:round;stroke-miterlimit:4;stroke-opacity:0;stroke-dasharray:none"
       d="m 393.95606,332.63721 c -13.56214,0 -24.46875,12.54297 -24.46875,28.125 l 0,172.9375 c 0,15.58203 10.90661,28.125 24.46875,28.125 l 188.5625,0 c 13.56214,0 24.46875,-12.54297 24.46875,-28.125 l 0,-172.9375 c 0,-15.58203 -10.90661,-28.125 -24.46875,-28.125 l -188.5625,0 z m 138.65625,10.5 37.40625,0 c 10.67658,0 19.28125,9.99835 19.28125,22.40625 l 0,70.96875 c 0,12.4079 -8.60467,22.375 -19.28125,22.375 l -37.40625,0 c -10.67658,0 -19.28125,-9.9671 -19.28125,-22.375 l 0,-70.96875 c 0,-12.4079 8.60467,-22.40625 19.28125,-22.40625 z m -124.875,3.65625 37.40625,0 c 10.67659,0 19.28125,8.60467 19.28125,19.28125 l 0,39.09375 c 0,10.67658 -8.60466,19.28125 -19.28125,19.28125 l -37.40625,0 c -10.67659,0 -19.28125,-8.60467 -19.28125,-19.28125 l 0,-39.09375 c 0,-10.67658 8.60466,-19.28125 19.28125,-19.28125 z m 0,89.53125 33.25,0 c 11.83081,0 21.375,10.69518 21.375,23.96875 l 0,67.8125 c 0,13.27357 -9.54419,23.96875 -21.375,23.96875 l -33.25,0 c -11.83081,0 -21.34375,-10.69518 -21.34375,-23.96875 l 0,-67.8125 c 0,-13.27357 9.51294,-23.96875 21.34375,-23.96875 z m 125.90625,32.625 34.28125,0 c 11.54225,0 20.84375,9.75564 20.84375,21.875 l 0,35.96875 c 0,12.11936 -9.3015,21.90625 -20.84375,21.90625 l -34.28125,0 c -11.54225,0 -20.84375,-9.78689 -20.84375,-21.90625 l 0,-35.96875 c 0,-12.11936 9.3015,-21.875 20.84375,-21.875 z"
       id="rect3800"
       inkscape:connector-curvature="0" />
    <path
       inkscape:connector-curvature="0"
       id="path3812"
       d="m 685.3279,381.39513 c -1.67788,0 -3.02722,1.60806 -3.02722,3.60575 l 0,22.17138 c 0,1.99769 1.34934,3.60576 3.02722,3.60576 l 23.32846,0 c 1.67788,0 3.02722,-1.60807 3.02722,-3.60576 l 0,-22.17138 c 0,-1.99769 -1.34934,-3.60575 -3.02722,-3.60575 l -23.32846,0 z m 17.15419,1.34615 4.6278,0 c 1.32088,0 2.38543,1.28183 2.38543,2.87258 l 0,9.09852 c 0,1.59075 -1.06455,2.86858 -2.38543,2.86858 l -4.6278,0 c -1.32088,0 -2.38543,-1.27783 -2.38543,-2.86858 l 0,-9.09852 c 0,-1.59075 1.06455,-2.87258 2.38543,-2.87258 z m -15.44922,0.46875 4.62781,0 c 1.32088,0 2.38542,1.10315 2.38542,2.47194 l 0,5.012 c 0,1.36878 -1.06454,2.47194 -2.38542,2.47194 l -4.62781,0 c -1.32087,0 -2.38542,-1.10316 -2.38542,-2.47194 l 0,-5.012 c 0,-1.36879 1.06455,-2.47194 2.38542,-2.47194 z m 0,11.47831 4.11361,0 c 1.46368,0 2.64446,1.37117 2.64446,3.07291 l 0,8.69387 c 0,1.70173 -1.18078,3.0729 -2.64446,3.0729 l -4.11361,0 c -1.46367,0 -2.64058,-1.37117 -2.64058,-3.0729 l 0,-8.69387 c 0,-1.70174 1.17691,-3.07291 2.64058,-3.07291 z m 15.57681,4.18268 4.24118,0 c 1.42798,0 2.57874,1.25071 2.57874,2.80447 l 0,4.61136 c 0,1.55376 -1.15076,2.80848 -2.57874,2.80848 l -4.24118,0 c -1.42798,0 -2.57874,-1.25472 -2.57874,-2.80848 l 0,-4.61136 c 0,-1.55376 1.15076,-2.80447 2.57874,-2.80447 z"
       style="fill:#eeeeec;fill-opacity:1;stroke:#3b3b3b;stroke-width:0.61711090999999996;stroke-linecap:round;stroke-linejoin:round;stroke-miterlimit:4;stroke-opacity:0;stroke-dasharray:none"
       inkscape:export-filename="/home/ronaldo/workspace/projectB/img/logoTop.png"
       inkscape:export-xdpi="90"
       inkscape:export-ydpi="90" />
  </g>
</svg>
